<svg width="166" height="33" viewBox="0 0 166 33" fill="none" xmlns="http://www.w3.org/2000/svg">
<path d="M138.13 32.0593H134.531V5.50818H144.557C150.249 5.50818 153.628 8.51951 153.628 13.4772C153.628 17.1496 151.791 19.7936 148.486 20.8586L153.885 32.0593H149.882L144.924 21.5564H138.13V32.0593ZM138.13 8.73985V18.3614H144.594C147.935 18.3614 149.845 16.562 149.845 13.5139C149.845 10.4291 147.862 8.73985 144.557 8.73985H138.13Z" fill="#141414"/>
<path d="M109.703 22.6214V5.50818H113.302V22.401C113.302 26.661 115.652 29.0113 119.876 29.0113C124.062 29.0113 126.376 26.6242 126.376 22.401V5.50818H130.011V22.6214C130.011 28.7175 126.119 32.5 119.876 32.5C113.596 32.5 109.703 28.7542 109.703 22.6214Z" fill="#141414"/>
<path d="M105.013 20.7852H94.5833V32.0593H90.9844V5.50818H106.996V8.8133H94.5833V17.5168H105.013V20.7852Z" fill="#141414"/>
<path d="M69.0833 32.0593H65.4844V5.50818H69.0833L82.671 26.0367V5.50818H86.2699V32.0593H82.671L69.0833 11.5308V32.0593Z" fill="#141414"/>
<path d="M60.763 5.50818V32.0593H57.1641V5.50818H60.763Z" fill="#141414"/>
<path d="M41.4505 32.0593L31.3516 5.50818H35.2075L41.6709 22.4745C42.2585 23.9801 42.7726 25.4858 43.3234 27.4689C43.9477 25.3756 44.572 23.6129 45.0127 22.4377L51.4394 5.50818H55.1852L45.1964 32.0593H41.4505Z" fill="#141414"/>
<rect x="156" y="1" width="9.3285" height="9.3285" rx="4.66425" stroke="#141414"/>
<path d="M161.157 8.22271H160.289V3.10571H161.157L162.809 7.17971L164.461 3.10571H165.343V8.22271H164.475V6.64771C164.475 5.61871 164.475 5.31771 164.524 4.95371L163.222 8.22271H162.396L161.101 4.96071C161.15 5.26871 161.157 5.75171 161.157 6.38871V8.22271Z" fill="#141414"/>
<path d="M155.992 3.93171V3.10571H159.884V3.93171H158.386V8.22271H157.49V3.93171H155.992Z" fill="#141414"/>
<g clip-path="url(#clip0_262_2588)">
<mask id="mask0_262_2588" style="mask-type:luminance" maskUnits="userSpaceOnUse" x="0" y="5" width="27" height="28">
<path d="M26.3984 32.0594V5.66431L0.00337219 5.66431V32.0594H26.3984Z" fill="white"/>
</mask>
<g mask="url(#mask0_262_2588)">
<path d="M4.42339e-07 5.66431C-0.000905171 9.16403 1.38879 12.5208 3.86338 14.9962C6.33797 17.4716 9.69478 18.8629 13.1954 18.8639V5.66431H4.42339e-07ZM13.1954 18.8639H26.3951V5.66431C24.6613 5.66408 22.9444 6.00537 21.3427 6.66868C19.741 7.33199 18.2856 8.30431 17.0598 9.5301C15.834 10.7559 14.8617 12.2111 14.1987 13.8127C13.5357 15.4142 13.1947 17.1307 13.1954 18.8639ZM13.1954 18.8639V32.0594H26.3951C26.3952 30.3264 26.0538 28.6105 25.3905 27.0093C24.7272 25.4083 23.7549 23.9536 22.5291 22.7283C21.3035 21.5029 19.8483 20.5309 18.2468 19.8679C16.6453 19.2048 14.9288 18.8637 13.1954 18.8639ZM13.1954 18.8639H4.42339e-07V32.0594C3.50003 32.0587 6.85645 30.6681 9.33101 28.1936C11.8056 25.719 13.1956 22.3631 13.1954 18.8639Z" fill="#141414"/>
</g>
</g>
<defs>
<clipPath id="clip0_262_2588">
<rect width="26.3951" height="26.3951" fill="white" transform="translate(0 5.66431)"/>
</clipPath>
</defs>
</svg>
