<svg width="320" height="80" viewBox="0 0 320 80" fill="none" xmlns="http://www.w3.org/2000/svg">
<g clip-path="url(#clip0_49_180)">
<mask id="mask0_49_180" style="mask-type:luminance" maskUnits="userSpaceOnUse" x="0" y="0" width="320" height="80">
<path d="M320 0H0V80H320V0Z" fill="white"/>
</mask>
<g mask="url(#mask0_49_180)">
<path fill-rule="evenodd" clip-rule="evenodd" d="M46.1754 0.52002L61.4877 18.6504L65.0594 52.1533L38.0322 80.5201L6.58643 52.0601L22.42 11.823L46.1754 0.52002ZM23.7932 14.912L36.423 28.2375L23.5068 46.9481L9.97001 50.0401L23.7932 14.912ZM10.5392 52.3853L34.5438 74.1109L23.5346 49.4173L10.5392 52.3853ZM26.1709 49.4141L38.3378 76.7045L61.2142 52.6945L26.1709 49.4141ZM62.2683 48.6893L59.301 20.8596L40.2003 28.5226L62.2683 48.6893ZM38.2807 26.6931L58.3314 18.649L45.5342 3.49672L25.383 13.0849L38.2807 26.6931ZM38.1766 29.9394L60.3343 50.1881L26.3919 47.0109L38.1766 29.9394Z" fill="#252525"/>
<path d="M161.01 63.3929C154.226 63.3929 148.499 61.1929 143.917 56.7049C139.335 52.2169 137.044 46.5849 137.044 39.8969C137.044 33.2089 139.335 27.6649 143.917 23.1769C148.499 18.6889 154.226 16.4009 161.01 16.4009C166.737 16.4009 171.671 18.0729 175.989 21.4169C180.306 24.6729 183.038 28.9849 184.183 34.1769H176.165C173.786 27.9289 168.059 23.7049 161.01 23.7049C156.34 23.7049 152.552 25.2889 149.468 28.3689C146.384 31.4489 144.886 35.2329 144.886 39.8969C144.886 44.5609 146.384 48.4329 149.468 51.5129C152.552 54.5929 156.34 56.0889 161.01 56.0889C168.059 56.0889 173.786 51.8649 176.165 45.6169H184.183C183.038 50.8089 180.306 55.1209 175.989 58.4649C171.671 61.7209 166.737 63.3929 161.01 63.3929Z" fill="#252525"/>
<path d="M259.015 21.0649C255.931 17.9849 251.878 16.4009 246.856 16.4009C239.366 16.4009 233.904 19.4809 230.644 25.7289C228.088 19.8329 222.449 16.4009 215.312 16.4009C208.792 16.4009 203.858 18.8649 200.598 23.8809V17.4569H193.021V62.3369H200.598V35.6729C200.598 28.5449 205.532 23.7049 212.933 23.7049C219.982 23.7049 224.564 28.3689 224.564 35.4969V62.3369H232.141V35.6729C232.141 28.5449 237.076 23.7049 244.477 23.7049C251.526 23.7049 256.107 28.3689 256.107 35.4969V62.3369H263.685V33.3849C263.685 28.1929 262.099 24.1449 259.015 21.0649Z" fill="#252525"/>
<path fill-rule="evenodd" clip-rule="evenodd" d="M319.694 42.8009V42.8001C319.775 41.7573 319.849 40.7897 319.849 39.8969C319.849 33.2089 317.559 27.6649 312.977 23.1769C308.483 18.6889 302.756 16.4009 295.972 16.4009C289.187 16.4009 283.46 18.6889 278.878 23.1769C274.385 27.6649 272.094 33.2089 272.094 39.8969C272.094 46.5849 274.385 52.2169 278.878 56.7049C283.46 61.1929 289.187 63.3929 295.972 63.3929C306.897 63.3929 315.708 57.2329 318.968 47.9929H310.598C308.219 53.0089 302.668 56.4409 295.972 56.4409C291.919 56.4409 288.394 55.2089 285.486 52.7449C282.579 50.2809 280.817 47.0249 280.2 43.0649H319.673L319.694 42.8009ZM311.743 36.2889H280.288C281.786 28.5449 287.954 23.3529 295.972 23.3529C303.99 23.3529 310.334 28.6329 311.743 36.2889Z" fill="#252525"/>
<path fill-rule="evenodd" clip-rule="evenodd" d="M130.499 17.4565H96.3121V24.7606H122.921V33.5606H109.529C104.859 33.5606 100.982 34.9686 97.8981 37.8726C94.8143 40.6887 93.3164 44.2087 93.3164 48.4327C93.3164 52.7447 94.8143 56.2647 97.8981 59.1687C100.982 61.9847 104.859 63.3927 109.529 63.3927C115.608 63.3927 120.895 60.7527 123.714 56.5287V62.3367H130.499V17.4565ZM122.921 47.6407C122.921 52.9207 117.899 56.5287 110.498 56.5287C105.123 56.5287 101.158 53.0967 101.158 48.4327C101.158 43.8567 105.123 40.4247 110.498 40.4247H122.921V47.6407Z" fill="#252525"/>
</g>
</g>
<defs>
<clipPath id="clip0_49_180">
<rect width="320" height="80" fill="white"/>
</clipPath>
</defs>
</svg>
