<svg width="23" height="23" viewBox="0 0 23 23" fill="none" xmlns="http://www.w3.org/2000/svg">
<path d="M7.73374 18.8297H14.0587C15.1051 18.8297 15.9562 17.9785 15.9562 16.9322V8.07719C15.9562 7.03084 15.1051 6.17969 14.0587 6.17969H7.73374C6.6874 6.17969 5.83624 7.03084 5.83624 8.07719V16.9322C5.83624 17.9785 6.6874 18.8297 7.73374 18.8297ZM7.10124 8.07719C7.10124 7.72851 7.38476 7.44469 7.73374 7.44469H14.0587C14.4077 7.44469 14.6912 7.72851 14.6912 8.07719V16.9322C14.6912 17.2809 14.4077 17.5647 14.0587 17.5647H7.73374C7.38476 17.5647 7.10124 17.2809 7.10124 16.9322V8.07719Z" fill="#262626"/>
<path d="M18.4862 11.8729V5.54789C18.4862 4.50155 17.6351 3.65039 16.5887 3.65039H10.2637C9.91443 3.65039 9.63123 3.9336 9.63123 4.28289C9.63123 4.63219 9.91443 4.91539 10.2637 4.91539H16.5887C16.9377 4.91539 17.2212 5.19921 17.2212 5.54789V11.8729C17.2212 12.2222 17.5044 12.5054 17.8537 12.5054C18.203 12.5054 18.4862 12.2222 18.4862 11.8729Z" fill="#262626"/>
</svg>
