<svg width="140" height="140" viewBox="0 0 140 140" fill="none" xmlns="http://www.w3.org/2000/svg">
<path d="M69.9994 132.702C61.5294 132.702 53.3219 131.04 45.5869 127.767C38.1144 124.618 31.4119 120.085 25.6544 114.327C19.8969 108.57 15.3819 101.868 12.2144 94.395C8.94188 86.6775 7.29688 78.47 7.29688 70C7.29688 61.53 8.95938 53.3225 12.2319 45.5875C15.3819 38.115 19.9144 31.4125 25.6719 25.655C31.4294 19.8975 38.1319 15.3825 45.6044 12.215C53.3394 8.9425 61.5469 7.28 70.0169 7.28C78.4869 7.28 86.6944 8.9425 94.4294 12.215C101.902 15.365 108.604 19.8975 114.362 25.655C120.119 31.4125 124.634 38.115 127.802 45.5875C131.074 53.3225 132.737 61.53 132.737 70C132.737 78.47 131.074 86.6775 127.802 94.4125C124.652 101.885 120.119 108.588 114.362 114.345C108.604 120.103 101.902 124.618 94.4294 127.785C86.6769 131.058 78.4694 132.702 69.9994 132.702ZM69.9994 16.0475C40.2494 16.0475 16.0469 40.25 16.0469 70C16.0469 99.75 40.2494 123.952 69.9994 123.952C99.7494 123.952 123.952 99.75 123.952 70C123.952 40.25 99.7494 16.0475 69.9994 16.0475Z" fill="#AC836C"/>
<path d="M61.2516 88.9525C60.1316 88.9525 59.0116 88.5325 58.1541 87.675L46.4816 76.0025C44.7666 74.2875 44.7666 71.5225 46.4816 69.8075C48.1966 68.0925 50.9616 68.0925 52.6766 69.8075L61.2516 78.3825L87.3266 52.3075C89.0416 50.5925 91.8066 50.5925 93.5216 52.3075C95.2366 54.0225 95.2366 56.7875 93.5216 58.5025L64.3491 87.675C63.4916 88.5325 62.3716 88.9525 61.2516 88.9525Z" fill="#AC836C"/>
</svg>
