<svg width="64" height="64" viewBox="0 0 64 64" fill="none" xmlns="http://www.w3.org/2000/svg">
<path d="M35.6898 51.7973V27.8557L43.6187 12.0043C44.1646 11.0365 45.1697 10.4161 46.2802 10.3602H53.1915C54.2091 10.3602 54.6744 11.0861 54.2091 12.0043L46.3299 27.8557H60.5558C61.5732 27.8557 62.3984 28.6809 62.3984 29.6984V51.7973C62.3984 52.8147 61.5732 53.6399 60.5558 53.6399H37.5324C36.515 53.6399 35.6898 52.8147 35.6898 51.7973Z" fill="white"/>
<path d="M1.6039 51.7973V27.8557L9.52652 12.0043C10.0786 11.0365 11.0838 10.4161 12.1943 10.3602H19.0994C20.1231 10.3602 20.5822 11.0861 20.1231 12.0043L12.2378 27.8557H26.4699C27.4873 27.8557 28.3125 28.6809 28.3125 29.6984V51.7973C28.3125 52.8147 27.4873 53.6399 26.4699 53.6399H3.44649C2.42909 53.6399 1.6039 52.8147 1.6039 51.7973Z" fill="white"/>
</svg>
