<svg width="16" height="12" viewBox="0 0 16 12" fill="none" xmlns="http://www.w3.org/2000/svg">
<path d="M9.98636 6.13478L10.8951 5.22603C10.9612 5.47341 11 5.73203 11 6.00003C11 7.65428 9.65424 9.00003 7.99999 9.00003C7.73199 9.00003 7.47336 8.96128 7.22599 8.89516L8.13474 7.98641C8.61507 7.95378 9.06732 7.74823 9.40775 7.4078C9.74818 7.06736 9.95374 6.61512 9.98636 6.13478ZM15.937 5.75716C15.8755 5.64653 15.0032 4.11816 13.2982 2.82291L12.5706 3.55053C13.8139 4.46466 14.6016 5.53078 14.9117 6.00078C14.3191 6.90316 11.9944 10 7.99999 10C7.40099 10 6.84399 9.92341 6.31986 9.80116L5.49824 10.6228C6.25361 10.8544 7.08386 11 7.99999 11C13.2341 11 15.8291 6.43703 15.937 6.24291C15.9783 6.16863 16 6.08503 16 6.00003C16 5.91503 15.9783 5.83144 15.937 5.75716ZM13.8535 0.853531L2.85349 11.8535C2.75586 11.9512 2.62786 12 2.49999 12C2.37211 12 2.24411 11.9512 2.14649 11.8535C2.10003 11.8071 2.06317 11.752 2.03803 11.6914C2.01288 11.6307 1.99994 11.5657 1.99994 11.5C1.99994 11.4344 2.01288 11.3694 2.03803 11.3087C2.06317 11.248 2.10003 11.1929 2.14649 11.1465L3.54599 9.74703C1.28349 8.38116 0.133861 6.37053 0.0629858 6.24291C0.0216782 6.1686 0 6.08499 0 5.99997C0 5.91495 0.0216782 5.83134 0.0629858 5.75703C0.170861 5.56303 2.76586 1.00003 7.99999 1.00003C9.35336 1.00003 10.5256 1.30878 11.5277 1.76528L13.1465 0.146531C13.3419 -0.0488437 13.6582 -0.0488437 13.8535 0.146531C14.0487 0.341906 14.0489 0.658281 13.8535 0.853531ZM4.29161 9.00141L5.55749 7.73553C5.20786 7.24503 4.99999 6.64691 4.99999 6.00003C4.99999 4.34578 6.34574 3.00003 7.99999 3.00003C8.64686 3.00003 9.24499 3.20791 9.73549 3.55741L10.7591 2.53378C9.95036 2.20991 9.03136 2.00003 7.99999 2.00003C4.00561 2.00003 1.68086 5.09691 1.08836 5.99928C1.46461 6.56953 2.54611 8.01303 4.29161 9.00141ZM6.28336 7.00953L9.00949 4.28341C8.71211 4.10778 8.36974 4.00003 7.99999 4.00003C6.89724 4.00003 5.99999 4.89728 5.99999 6.00003C5.99999 6.36978 6.10774 6.71216 6.28336 7.00953Z" fill="#252525"/>
</svg>
