<svg width="27" height="28" viewBox="0 0 27 28" fill="none" xmlns="http://www.w3.org/2000/svg">
<g clip-path="url(#clip0_120_1989)">
<mask id="mask0_120_1989" style="mask-type:luminance" maskUnits="userSpaceOnUse" x="0" y="0" width="27" height="28">
<path d="M26.3945 27.0593V0.664246L-0.000534058 0.664246V27.0593H26.3945Z" fill="white"/>
</mask>
<g mask="url(#mask0_120_1989)">
<path d="M4.42339e-07 0.664246C-0.000905171 4.16397 1.38879 7.52071 3.86338 9.9961C6.33797 12.4715 9.69478 13.8628 13.1954 13.8639V0.664246H4.42339e-07ZM13.1954 13.8639H26.3951V0.664246C24.6613 0.664021 22.9444 1.00531 21.3427 1.66862C19.741 2.33193 18.2856 3.30425 17.0598 4.53004C15.834 5.75584 14.8617 7.21108 14.1987 8.81261C13.5357 10.4141 13.1947 12.1306 13.1954 13.8639ZM13.1954 13.8639V27.0593H26.3951C26.3952 25.3263 26.0538 23.6104 25.3905 22.0093C24.7272 20.4083 23.7549 18.9535 22.5291 17.7283C21.3035 16.5029 19.8483 15.5309 18.2468 14.8678C16.6453 14.2048 14.9288 13.8636 13.1954 13.8639ZM13.1954 13.8639H4.42339e-07V27.0593C3.50003 27.0587 6.85645 25.668 9.33101 23.1935C11.8056 20.719 13.1956 17.3631 13.1954 13.8639Z" fill="#141414"/>
</g>
</g>
<defs>
<clipPath id="clip0_120_1989">
<rect width="26.3951" height="26.3951" fill="white" transform="translate(0 0.664246)"/>
</clipPath>
</defs>
</svg>
